<?xml version="1.0" encoding="UTF-8" standalone="no"?>
<svg
   viewBox="0 0 128 128"
   version="1.1"
   id="svg38"
   sodipodi:docname="preview.svg"
   inkscape:version="1.2.1 (9c6d41e, 2022-07-14)"
   inkscape:export-filename="preview.png"
   inkscape:export-xdpi="96"
   inkscape:export-ydpi="96"
   xmlns:inkscape="http://www.inkscape.org/namespaces/inkscape"
   xmlns:sodipodi="http://sodipodi.sourceforge.net/DTD/sodipodi-0.dtd"
   xmlns="http://www.w3.org/2000/svg"
   xmlns:svg="http://www.w3.org/2000/svg">
  <sodipodi:namedview
     id="namedview40"
     pagecolor="#ffffff"
     bordercolor="#000000"
     borderopacity="0.25"
     inkscape:showpageshadow="2"
     inkscape:pageopacity="0.0"
     inkscape:pagecheckerboard="0"
     inkscape:deskcolor="#d1d1d1"
     showgrid="false"
     inkscape:zoom="1.7222138"
     inkscape:cx="62.709984"
     inkscape:cy="62.129336"
     inkscape:window-width="1309"
     inkscape:window-height="456"
     inkscape:window-x="0"
     inkscape:window-y="38"
     inkscape:window-maximized="0"
     inkscape:current-layer="svg38" />
  <defs
     id="defs4">
    <style
       id="style2">.cls-1{isolation:isolate;}.cls-2{mix-blend-mode:multiply;}.cls-3,.cls-7{fill:#302a27;}.cls-4{fill:#d94b58;}.cls-5{fill:#fff;}.cls-6{fill:#f9efd4;}.cls-7,.cls-8{stroke:#302a27;stroke-linecap:round;stroke-linejoin:round;stroke-width:2px;}.cls-7{opacity:0.12;}.cls-8{fill:none;}.cls-9{opacity:0.24;}</style>
  </defs>
  <title
     id="title6">steak</title>
  <rect
     style="fill:#926821;fill-opacity:1;stroke-width:0.117187"
     id="rect4451"
     width="15"
     height="15"
     x="0"
     y="0" />
  <g
     class="cls-1"
     id="g36-0-3-7"
     transform="matrix(-0.06622215,0,0,0.06815767,15.460679,8.170943)"
     style="isolation:isolate">
    <g
       id="icons-2-9-8"
       class="cls-2"
       style="mix-blend-mode:multiply"
       transform="matrix(0.91574841,-0.39034334,0.41349458,0.91574841,-21.071861,9.4098036)">
      <path
         class="cls-3"
         d="M 37.8,97 A 24.234,24.234 0 0 1 15.345,82.679 27.086,27.086 0 0 1 13.193,74.694 29.379,29.379 0 0 1 13,71.3 C 13,45.312 30.047,31 61,31 c 20.833,0 43.315,10.447 51.183,23.784 a 18.591,18.591 0 0 1 1.081,17.7 c -2.3,4.665 -6.625,7.233 -12.181,7.233 a 22.715,22.715 0 0 1 -7.77,-1.5 20.291,20.291 0 0 0 -7.136,-1.378 c -7.131,0 -15.043,4.395 -30.081,14.244 A 33.69,33.69 0 0 1 37.8,97 Z"
         id="path8-4-9-7"
         style="fill:#302a27" />
      <path
         class="cls-3"
         d="m 61,33 c 21.15,0 42.31,10.68 49.46,22.8 a 16.594,16.594 0 0 1 1.01,15.8 c -1.947,3.948 -5.629,6.117 -10.387,6.117 A 20.742,20.742 0 0 1 94,76.34 22.409,22.409 0 0 0 86.176,74.84 C 78.319,74.84 70.062,79.54 55,89.41 A 31.489,31.489 0 0 1 37.8,95 22.139,22.139 0 0 1 17.17,81.86 25.085,25.085 0 0 1 15.18,74.47 27.42,27.42 0 0 1 15,71.3 C 15,45.09 33,33 61,33 m 0,-4 C 45.707,29 33.6,32.425 25.026,39.178 15.719,46.506 11,57.313 11,71.3 a 31.522,31.522 0 0 0 0.207,3.633 29.058,29.058 0 0 0 2.308,8.552 A 26.216,26.216 0 0 0 37.8,99 35.678,35.678 0 0 0 57.19,92.756 C 71.884,83.133 79.555,78.84 86.176,78.84 a 18.363,18.363 0 0 1 6.448,1.26 24.708,24.708 0 0 0 8.459,1.621 c 6.266,0 11.359,-3.043 13.975,-8.348 A 20.592,20.592 0 0 0 113.9,53.762 C 109.958,47.079 102.424,40.855 92.692,36.24 A 75.572,75.572 0 0 0 61,29 Z"
         id="path10-8-7-7"
         style="fill:#302a27" />
      <g
         id="_Group_-3-0-4"
         data-name="&lt;Group&gt;">
        <path
           class="cls-4"
           d="m 110.46,55.8 a 16.594,16.594 0 0 1 1.01,15.8 C 108.36,73.01 103.77,73.01 97,70 79,62 65,75 51,84 39.89,91.14 25.2,89.08 17.17,81.86 A 25.086,25.086 0 0 1 15.18,74.47 27.421,27.421 0 0 1 15,71.3 C 15,45.09 33,33 61,33 c 21.15,0 42.31,10.68 49.46,22.8 z M 50,64 a 9,9 0 1 0 -9,9 9,9 0 0 0 9,-9 z"
           id="path12-9-3-4"
           style="fill:#d94b58" />
        <circle
           class="cls-5"
           cx="41"
           cy="64"
           r="9"
           id="circle14-0-9-9"
           style="fill:#ffffff" />
        <path
           class="cls-6"
           d="M 55,89.41 C 38.94,99.93 22.88,94.58 17.17,81.86 25.2,89.08 39.89,91.14 51,84 65,75 79,62 97,70 c 6.77,3.01 11.36,3.01 14.47,1.6 -2.83,5.74 -9.33,7.72 -17.47,4.74 C 83,72.31 75,76.31 55,89.41 Z"
           id="path16-5-8-1"
           style="fill:#f9efd4" />
        <path
           class="cls-7"
           d="m 113,64.24 a 16.579,16.579 0 0 1 -1.53,7.36 C 108.36,73.01 103.77,73.01 97,70 79,62 65,75 51,84 39.89,91.14 25.2,89.08 17.17,81.86 a 25.085,25.085 0 0 1 -1.99,-7.39 10.144,10.144 0 0 1 3.77,0.96 38.133,38.133 0 0 1 4.29,2.76 c 7.05,4.66 17.08,5.42 23.76,0.23 5.23,-4.06 8.37,-11.38 14.86,-12.69 1.93,-0.39 3.94,-0.16 5.89,-0.46 4.81,-0.74 8.69,-4.57 13.47,-5.46 3.83,-0.72 7.71,0.53 11.48,1.5 a 84.14,84.14 0 0 0 13.37,2.28 3.358,3.358 0 0 0 1.89,-0.22 2.96,2.96 0 0 0 1,-1.13 11.351,11.351 0 0 0 1.5,-6.44 16.616,16.616 0 0 1 2.54,8.44 z"
           id="path18-2-6-5"
           style="opacity:0.12;fill:#302a27;stroke:#302a27;stroke-width:2px;stroke-linecap:round;stroke-linejoin:round" />
        <path
           class="cls-8"
           d="M 17.17,81.86 A 25.086,25.086 0 0 1 15.18,74.47 27.421,27.421 0 0 1 15,71.3 C 15,45.09 33,33 61,33 c 21.15,0 42.31,10.68 49.46,22.8 a 16.594,16.594 0 0 1 1.01,15.8"
           id="path20-2-5-5"
           style="fill:none;stroke:#302a27;stroke-width:2px;stroke-linecap:round;stroke-linejoin:round" />
        <circle
           class="cls-8"
           cx="41"
           cy="64"
           r="9"
           id="circle22-7-7-5"
           style="fill:none;stroke:#302a27;stroke-width:2px;stroke-linecap:round;stroke-linejoin:round" />
        <path
           class="cls-8"
           d="M 111.47,71.6 C 108.64,77.34 102.14,79.32 94,76.34 83,72.31 75,76.31 55,89.41 38.94,99.93 22.88,94.58 17.17,81.86 25.2,89.08 39.89,91.14 51,84 65,75 79,62 97,70 c 6.77,3.01 11.36,3.01 14.47,1.6 z"
           id="path24-3-6-8"
           style="fill:none;stroke:#302a27;stroke-width:2px;stroke-linecap:round;stroke-linejoin:round" />
        <g
           class="cls-9"
           id="g32-7-2-2"
           style="opacity:0.24">
          <line
             class="cls-8"
             x1="68"
             y1="45"
             x2="81.5"
             y2="58.5"
             id="line26-9-7-9"
             style="fill:none;stroke:#302a27;stroke-width:2px;stroke-linecap:round;stroke-linejoin:round" />
          <line
             class="cls-8"
             x1="52"
             y1="43"
             x2="65.5"
             y2="56.5"
             id="line28-0-0-8"
             style="fill:none;stroke:#302a27;stroke-width:2px;stroke-linecap:round;stroke-linejoin:round" />
          <line
             class="cls-8"
             x1="84"
             y1="47"
             x2="97.5"
             y2="60.5"
             id="line30-2-3-2"
             style="fill:none;stroke:#302a27;stroke-width:2px;stroke-linecap:round;stroke-linejoin:round" />
        </g>
      </g>
    </g>
  </g>
  <g
     class="cls-1"
     id="g36-0-3-7-8"
     transform="matrix(-0.06622215,0,0,0.06815767,15.555714,1.154772)"
     style="isolation:isolate">
    <g
       id="icons-2-9-8-7"
       class="cls-2"
       style="mix-blend-mode:multiply"
       transform="matrix(0.91574841,-0.39034334,0.41349458,0.91574841,-21.071861,9.4098036)">
      <path
         class="cls-3"
         d="M 37.8,97 A 24.234,24.234 0 0 1 15.345,82.679 27.086,27.086 0 0 1 13.193,74.694 29.379,29.379 0 0 1 13,71.3 C 13,45.312 30.047,31 61,31 c 20.833,0 43.315,10.447 51.183,23.784 a 18.591,18.591 0 0 1 1.081,17.7 c -2.3,4.665 -6.625,7.233 -12.181,7.233 a 22.715,22.715 0 0 1 -7.77,-1.5 20.291,20.291 0 0 0 -7.136,-1.378 c -7.131,0 -15.043,4.395 -30.081,14.244 A 33.69,33.69 0 0 1 37.8,97 Z"
         id="path8-4-9-7-60"
         style="fill:#302a27" />
      <path
         class="cls-3"
         d="m 61,33 c 21.15,0 42.31,10.68 49.46,22.8 a 16.594,16.594 0 0 1 1.01,15.8 c -1.947,3.948 -5.629,6.117 -10.387,6.117 A 20.742,20.742 0 0 1 94,76.34 22.409,22.409 0 0 0 86.176,74.84 C 78.319,74.84 70.062,79.54 55,89.41 A 31.489,31.489 0 0 1 37.8,95 22.139,22.139 0 0 1 17.17,81.86 25.085,25.085 0 0 1 15.18,74.47 27.42,27.42 0 0 1 15,71.3 C 15,45.09 33,33 61,33 m 0,-4 C 45.707,29 33.6,32.425 25.026,39.178 15.719,46.506 11,57.313 11,71.3 a 31.522,31.522 0 0 0 0.207,3.633 29.058,29.058 0 0 0 2.308,8.552 A 26.216,26.216 0 0 0 37.8,99 35.678,35.678 0 0 0 57.19,92.756 C 71.884,83.133 79.555,78.84 86.176,78.84 a 18.363,18.363 0 0 1 6.448,1.26 24.708,24.708 0 0 0 8.459,1.621 c 6.266,0 11.359,-3.043 13.975,-8.348 A 20.592,20.592 0 0 0 113.9,53.762 C 109.958,47.079 102.424,40.855 92.692,36.24 A 75.572,75.572 0 0 0 61,29 Z"
         id="path10-8-7-7-0"
         style="fill:#302a27" />
      <g
         id="_Group_-3-0-4-9"
         data-name="&lt;Group&gt;">
        <path
           class="cls-4"
           d="m 110.46,55.8 a 16.594,16.594 0 0 1 1.01,15.8 C 108.36,73.01 103.77,73.01 97,70 79,62 65,75 51,84 39.89,91.14 25.2,89.08 17.17,81.86 A 25.086,25.086 0 0 1 15.18,74.47 27.421,27.421 0 0 1 15,71.3 C 15,45.09 33,33 61,33 c 21.15,0 42.31,10.68 49.46,22.8 z M 50,64 a 9,9 0 1 0 -9,9 9,9 0 0 0 9,-9 z"
           id="path12-9-3-4-56"
           style="fill:#d94b58" />
        <circle
           class="cls-5"
           cx="41"
           cy="64"
           r="9"
           id="circle14-0-9-9-28"
           style="fill:#ffffff" />
        <path
           class="cls-6"
           d="M 55,89.41 C 38.94,99.93 22.88,94.58 17.17,81.86 25.2,89.08 39.89,91.14 51,84 65,75 79,62 97,70 c 6.77,3.01 11.36,3.01 14.47,1.6 -2.83,5.74 -9.33,7.72 -17.47,4.74 C 83,72.31 75,76.31 55,89.41 Z"
           id="path16-5-8-1-5"
           style="fill:#f9efd4" />
        <path
           class="cls-7"
           d="m 113,64.24 a 16.579,16.579 0 0 1 -1.53,7.36 C 108.36,73.01 103.77,73.01 97,70 79,62 65,75 51,84 39.89,91.14 25.2,89.08 17.17,81.86 a 25.085,25.085 0 0 1 -1.99,-7.39 10.144,10.144 0 0 1 3.77,0.96 38.133,38.133 0 0 1 4.29,2.76 c 7.05,4.66 17.08,5.42 23.76,0.23 5.23,-4.06 8.37,-11.38 14.86,-12.69 1.93,-0.39 3.94,-0.16 5.89,-0.46 4.81,-0.74 8.69,-4.57 13.47,-5.46 3.83,-0.72 7.71,0.53 11.48,1.5 a 84.14,84.14 0 0 0 13.37,2.28 3.358,3.358 0 0 0 1.89,-0.22 2.96,2.96 0 0 0 1,-1.13 11.351,11.351 0 0 0 1.5,-6.44 16.616,16.616 0 0 1 2.54,8.44 z"
           id="path18-2-6-5-9"
           style="opacity:0.12;fill:#302a27;stroke:#302a27;stroke-width:2px;stroke-linecap:round;stroke-linejoin:round" />
        <path
           class="cls-8"
           d="M 17.17,81.86 A 25.086,25.086 0 0 1 15.18,74.47 27.421,27.421 0 0 1 15,71.3 C 15,45.09 33,33 61,33 c 21.15,0 42.31,10.68 49.46,22.8 a 16.594,16.594 0 0 1 1.01,15.8"
           id="path20-2-5-5-4"
           style="fill:none;stroke:#302a27;stroke-width:2px;stroke-linecap:round;stroke-linejoin:round" />
        <circle
           class="cls-8"
           cx="41"
           cy="64"
           r="9"
           id="circle22-7-7-5-3"
           style="fill:none;stroke:#302a27;stroke-width:2px;stroke-linecap:round;stroke-linejoin:round" />
        <path
           class="cls-8"
           d="M 111.47,71.6 C 108.64,77.34 102.14,79.32 94,76.34 83,72.31 75,76.31 55,89.41 38.94,99.93 22.88,94.58 17.17,81.86 25.2,89.08 39.89,91.14 51,84 65,75 79,62 97,70 c 6.77,3.01 11.36,3.01 14.47,1.6 z"
           id="path24-3-6-8-9"
           style="fill:none;stroke:#302a27;stroke-width:2px;stroke-linecap:round;stroke-linejoin:round" />
        <g
           class="cls-9"
           id="g32-7-2-2-0"
           style="opacity:0.24">
          <line
             class="cls-8"
             x1="68"
             y1="45"
             x2="81.5"
             y2="58.5"
             id="line26-9-7-9-5"
             style="fill:none;stroke:#302a27;stroke-width:2px;stroke-linecap:round;stroke-linejoin:round" />
          <line
             class="cls-8"
             x1="52"
             y1="43"
             x2="65.5"
             y2="56.5"
             id="line28-0-0-8-6"
             style="fill:none;stroke:#302a27;stroke-width:2px;stroke-linecap:round;stroke-linejoin:round" />
          <line
             class="cls-8"
             x1="84"
             y1="47"
             x2="97.5"
             y2="60.5"
             id="line30-2-3-2-3"
             style="fill:none;stroke:#302a27;stroke-width:2px;stroke-linecap:round;stroke-linejoin:round" />
        </g>
      </g>
    </g>
  </g>
  <g
     class="cls-1"
     id="g36-0-3-7-8-6"
     transform="matrix(-0.06622215,0,0,0.06815767,8.751245,1.290861)"
     style="isolation:isolate">
    <g
       id="icons-2-9-8-7-3"
       class="cls-2"
       style="mix-blend-mode:multiply"
       transform="matrix(0.91574841,-0.39034334,0.41349458,0.91574841,-21.071861,9.4098036)">
      <path
         class="cls-3"
         d="M 37.8,97 A 24.234,24.234 0 0 1 15.345,82.679 27.086,27.086 0 0 1 13.193,74.694 29.379,29.379 0 0 1 13,71.3 C 13,45.312 30.047,31 61,31 c 20.833,0 43.315,10.447 51.183,23.784 a 18.591,18.591 0 0 1 1.081,17.7 c -2.3,4.665 -6.625,7.233 -12.181,7.233 a 22.715,22.715 0 0 1 -7.77,-1.5 20.291,20.291 0 0 0 -7.136,-1.378 c -7.131,0 -15.043,4.395 -30.081,14.244 A 33.69,33.69 0 0 1 37.8,97 Z"
         id="path8-4-9-7-60-0"
         style="fill:#302a27" />
      <path
         class="cls-3"
         d="m 61,33 c 21.15,0 42.31,10.68 49.46,22.8 a 16.594,16.594 0 0 1 1.01,15.8 c -1.947,3.948 -5.629,6.117 -10.387,6.117 A 20.742,20.742 0 0 1 94,76.34 22.409,22.409 0 0 0 86.176,74.84 C 78.319,74.84 70.062,79.54 55,89.41 A 31.489,31.489 0 0 1 37.8,95 22.139,22.139 0 0 1 17.17,81.86 25.085,25.085 0 0 1 15.18,74.47 27.42,27.42 0 0 1 15,71.3 C 15,45.09 33,33 61,33 m 0,-4 C 45.707,29 33.6,32.425 25.026,39.178 15.719,46.506 11,57.313 11,71.3 a 31.522,31.522 0 0 0 0.207,3.633 29.058,29.058 0 0 0 2.308,8.552 A 26.216,26.216 0 0 0 37.8,99 35.678,35.678 0 0 0 57.19,92.756 C 71.884,83.133 79.555,78.84 86.176,78.84 a 18.363,18.363 0 0 1 6.448,1.26 24.708,24.708 0 0 0 8.459,1.621 c 6.266,0 11.359,-3.043 13.975,-8.348 A 20.592,20.592 0 0 0 113.9,53.762 C 109.958,47.079 102.424,40.855 92.692,36.24 A 75.572,75.572 0 0 0 61,29 Z"
         id="path10-8-7-7-0-8"
         style="fill:#302a27" />
      <g
         id="_Group_-3-0-4-9-4"
         data-name="&lt;Group&gt;">
        <path
           class="cls-4"
           d="m 110.46,55.8 a 16.594,16.594 0 0 1 1.01,15.8 C 108.36,73.01 103.77,73.01 97,70 79,62 65,75 51,84 39.89,91.14 25.2,89.08 17.17,81.86 A 25.086,25.086 0 0 1 15.18,74.47 27.421,27.421 0 0 1 15,71.3 C 15,45.09 33,33 61,33 c 21.15,0 42.31,10.68 49.46,22.8 z M 50,64 a 9,9 0 1 0 -9,9 9,9 0 0 0 9,-9 z"
           id="path12-9-3-4-56-0"
           style="fill:#d94b58" />
        <circle
           class="cls-5"
           cx="41"
           cy="64"
           r="9"
           id="circle14-0-9-9-28-4"
           style="fill:#ffffff" />
        <path
           class="cls-6"
           d="M 55,89.41 C 38.94,99.93 22.88,94.58 17.17,81.86 25.2,89.08 39.89,91.14 51,84 65,75 79,62 97,70 c 6.77,3.01 11.36,3.01 14.47,1.6 -2.83,5.74 -9.33,7.72 -17.47,4.74 C 83,72.31 75,76.31 55,89.41 Z"
           id="path16-5-8-1-5-6"
           style="fill:#f9efd4" />
        <path
           class="cls-7"
           d="m 113,64.24 a 16.579,16.579 0 0 1 -1.53,7.36 C 108.36,73.01 103.77,73.01 97,70 79,62 65,75 51,84 39.89,91.14 25.2,89.08 17.17,81.86 a 25.085,25.085 0 0 1 -1.99,-7.39 10.144,10.144 0 0 1 3.77,0.96 38.133,38.133 0 0 1 4.29,2.76 c 7.05,4.66 17.08,5.42 23.76,0.23 5.23,-4.06 8.37,-11.38 14.86,-12.69 1.93,-0.39 3.94,-0.16 5.89,-0.46 4.81,-0.74 8.69,-4.57 13.47,-5.46 3.83,-0.72 7.71,0.53 11.48,1.5 a 84.14,84.14 0 0 0 13.37,2.28 3.358,3.358 0 0 0 1.89,-0.22 2.96,2.96 0 0 0 1,-1.13 11.351,11.351 0 0 0 1.5,-6.44 16.616,16.616 0 0 1 2.54,8.44 z"
           id="path18-2-6-5-9-4"
           style="opacity:0.12;fill:#302a27;stroke:#302a27;stroke-width:2px;stroke-linecap:round;stroke-linejoin:round" />
        <path
           class="cls-8"
           d="M 17.17,81.86 A 25.086,25.086 0 0 1 15.18,74.47 27.421,27.421 0 0 1 15,71.3 C 15,45.09 33,33 61,33 c 21.15,0 42.31,10.68 49.46,22.8 a 16.594,16.594 0 0 1 1.01,15.8"
           id="path20-2-5-5-4-6"
           style="fill:none;stroke:#302a27;stroke-width:2px;stroke-linecap:round;stroke-linejoin:round" />
        <circle
           class="cls-8"
           cx="41"
           cy="64"
           r="9"
           id="circle22-7-7-5-3-4"
           style="fill:none;stroke:#302a27;stroke-width:2px;stroke-linecap:round;stroke-linejoin:round" />
        <path
           class="cls-8"
           d="M 111.47,71.6 C 108.64,77.34 102.14,79.32 94,76.34 83,72.31 75,76.31 55,89.41 38.94,99.93 22.88,94.58 17.17,81.86 25.2,89.08 39.89,91.14 51,84 65,75 79,62 97,70 c 6.77,3.01 11.36,3.01 14.47,1.6 z"
           id="path24-3-6-8-9-3"
           style="fill:none;stroke:#302a27;stroke-width:2px;stroke-linecap:round;stroke-linejoin:round" />
        <g
           class="cls-9"
           id="g32-7-2-2-0-8"
           style="opacity:0.24">
          <line
             class="cls-8"
             x1="68"
             y1="45"
             x2="81.5"
             y2="58.5"
             id="line26-9-7-9-5-4"
             style="fill:none;stroke:#302a27;stroke-width:2px;stroke-linecap:round;stroke-linejoin:round" />
          <line
             class="cls-8"
             x1="52"
             y1="43"
             x2="65.5"
             y2="56.5"
             id="line28-0-0-8-6-0"
             style="fill:none;stroke:#302a27;stroke-width:2px;stroke-linecap:round;stroke-linejoin:round" />
          <line
             class="cls-8"
             x1="84"
             y1="47"
             x2="97.5"
             y2="60.5"
             id="line30-2-3-2-3-0"
             style="fill:none;stroke:#302a27;stroke-width:2px;stroke-linecap:round;stroke-linejoin:round" />
        </g>
      </g>
    </g>
  </g>
  <g
     class="cls-1"
     id="g36-0-3-7-3"
     transform="matrix(-0.06622215,0,0,0.06815767,8.615156,8.027285)"
     style="isolation:isolate">
    <g
       id="icons-2-9-8-0"
       class="cls-2"
       style="mix-blend-mode:multiply"
       transform="matrix(0.91574841,-0.39034334,0.41349458,0.91574841,-21.071861,9.4098036)">
      <path
         class="cls-3"
         d="M 37.8,97 A 24.234,24.234 0 0 1 15.345,82.679 27.086,27.086 0 0 1 13.193,74.694 29.379,29.379 0 0 1 13,71.3 C 13,45.312 30.047,31 61,31 c 20.833,0 43.315,10.447 51.183,23.784 a 18.591,18.591 0 0 1 1.081,17.7 c -2.3,4.665 -6.625,7.233 -12.181,7.233 a 22.715,22.715 0 0 1 -7.77,-1.5 20.291,20.291 0 0 0 -7.136,-1.378 c -7.131,0 -15.043,4.395 -30.081,14.244 A 33.69,33.69 0 0 1 37.8,97 Z"
         id="path8-4-9-7-6"
         style="fill:#302a27" />
      <path
         class="cls-3"
         d="m 61,33 c 21.15,0 42.31,10.68 49.46,22.8 a 16.594,16.594 0 0 1 1.01,15.8 c -1.947,3.948 -5.629,6.117 -10.387,6.117 A 20.742,20.742 0 0 1 94,76.34 22.409,22.409 0 0 0 86.176,74.84 C 78.319,74.84 70.062,79.54 55,89.41 A 31.489,31.489 0 0 1 37.8,95 22.139,22.139 0 0 1 17.17,81.86 25.085,25.085 0 0 1 15.18,74.47 27.42,27.42 0 0 1 15,71.3 C 15,45.09 33,33 61,33 m 0,-4 C 45.707,29 33.6,32.425 25.026,39.178 15.719,46.506 11,57.313 11,71.3 a 31.522,31.522 0 0 0 0.207,3.633 29.058,29.058 0 0 0 2.308,8.552 A 26.216,26.216 0 0 0 37.8,99 35.678,35.678 0 0 0 57.19,92.756 C 71.884,83.133 79.555,78.84 86.176,78.84 a 18.363,18.363 0 0 1 6.448,1.26 24.708,24.708 0 0 0 8.459,1.621 c 6.266,0 11.359,-3.043 13.975,-8.348 A 20.592,20.592 0 0 0 113.9,53.762 C 109.958,47.079 102.424,40.855 92.692,36.24 A 75.572,75.572 0 0 0 61,29 Z"
         id="path10-8-7-7-2"
         style="fill:#302a27" />
      <g
         id="_Group_-3-0-4-2"
         data-name="&lt;Group&gt;">
        <path
           class="cls-4"
           d="m 110.46,55.8 a 16.594,16.594 0 0 1 1.01,15.8 C 108.36,73.01 103.77,73.01 97,70 79,62 65,75 51,84 39.89,91.14 25.2,89.08 17.17,81.86 A 25.086,25.086 0 0 1 15.18,74.47 27.421,27.421 0 0 1 15,71.3 C 15,45.09 33,33 61,33 c 21.15,0 42.31,10.68 49.46,22.8 z M 50,64 a 9,9 0 1 0 -9,9 9,9 0 0 0 9,-9 z"
           id="path12-9-3-4-5"
           style="fill:#d94b58" />
        <circle
           class="cls-5"
           cx="41"
           cy="64"
           r="9"
           id="circle14-0-9-9-2"
           style="fill:#ffffff" />
        <path
           class="cls-6"
           d="M 55,89.41 C 38.94,99.93 22.88,94.58 17.17,81.86 25.2,89.08 39.89,91.14 51,84 65,75 79,62 97,70 c 6.77,3.01 11.36,3.01 14.47,1.6 -2.83,5.74 -9.33,7.72 -17.47,4.74 C 83,72.31 75,76.31 55,89.41 Z"
           id="path16-5-8-1-2"
           style="fill:#f9efd4" />
        <path
           class="cls-7"
           d="m 113,64.24 a 16.579,16.579 0 0 1 -1.53,7.36 C 108.36,73.01 103.77,73.01 97,70 79,62 65,75 51,84 39.89,91.14 25.2,89.08 17.17,81.86 a 25.085,25.085 0 0 1 -1.99,-7.39 10.144,10.144 0 0 1 3.77,0.96 38.133,38.133 0 0 1 4.29,2.76 c 7.05,4.66 17.08,5.42 23.76,0.23 5.23,-4.06 8.37,-11.38 14.86,-12.69 1.93,-0.39 3.94,-0.16 5.89,-0.46 4.81,-0.74 8.69,-4.57 13.47,-5.46 3.83,-0.72 7.71,0.53 11.48,1.5 a 84.14,84.14 0 0 0 13.37,2.28 3.358,3.358 0 0 0 1.89,-0.22 2.96,2.96 0 0 0 1,-1.13 11.351,11.351 0 0 0 1.5,-6.44 16.616,16.616 0 0 1 2.54,8.44 z"
           id="path18-2-6-5-7"
           style="opacity:0.12;fill:#302a27;stroke:#302a27;stroke-width:2px;stroke-linecap:round;stroke-linejoin:round" />
        <path
           class="cls-8"
           d="M 17.17,81.86 A 25.086,25.086 0 0 1 15.18,74.47 27.421,27.421 0 0 1 15,71.3 C 15,45.09 33,33 61,33 c 21.15,0 42.31,10.68 49.46,22.8 a 16.594,16.594 0 0 1 1.01,15.8"
           id="path20-2-5-5-1"
           style="fill:none;stroke:#302a27;stroke-width:2px;stroke-linecap:round;stroke-linejoin:round" />
        <circle
           class="cls-8"
           cx="41"
           cy="64"
           r="9"
           id="circle22-7-7-5-5"
           style="fill:none;stroke:#302a27;stroke-width:2px;stroke-linecap:round;stroke-linejoin:round" />
        <path
           class="cls-8"
           d="M 111.47,71.6 C 108.64,77.34 102.14,79.32 94,76.34 83,72.31 75,76.31 55,89.41 38.94,99.93 22.88,94.58 17.17,81.86 25.2,89.08 39.89,91.14 51,84 65,75 79,62 97,70 c 6.77,3.01 11.36,3.01 14.47,1.6 z"
           id="path24-3-6-8-2"
           style="fill:none;stroke:#302a27;stroke-width:2px;stroke-linecap:round;stroke-linejoin:round" />
        <g
           class="cls-9"
           id="g32-7-2-2-1"
           style="opacity:0.24">
          <line
             class="cls-8"
             x1="68"
             y1="45"
             x2="81.5"
             y2="58.5"
             id="line26-9-7-9-1"
             style="fill:none;stroke:#302a27;stroke-width:2px;stroke-linecap:round;stroke-linejoin:round" />
          <line
             class="cls-8"
             x1="52"
             y1="43"
             x2="65.5"
             y2="56.5"
             id="line28-0-0-8-0"
             style="fill:none;stroke:#302a27;stroke-width:2px;stroke-linecap:round;stroke-linejoin:round" />
          <line
             class="cls-8"
             x1="84"
             y1="47"
             x2="97.5"
             y2="60.5"
             id="line30-2-3-2-1"
             style="fill:none;stroke:#302a27;stroke-width:2px;stroke-linecap:round;stroke-linejoin:round" />
        </g>
      </g>
    </g>
  </g>
</svg>
